<svg id="Capa_1" enable-background="new 0 0 512 512" height="512" viewBox="0 0 512 512" width="512" xmlns="http://www.w3.org/2000/svg"><g><g><path d="m395.22 276.352c20.295 13.904 9.966 45.694-14.626 45.014-17.331-.48-29.737 16.596-23.926 32.931 8.247 23.178-18.796 42.825-38.291 27.82-13.739-10.575-33.813-4.052-38.713 12.579-6.952 23.599-40.378 23.599-47.33 0-4.899-16.631-24.973-23.153-38.713-12.579-19.495 15.005-46.537-4.642-38.291-27.82 5.812-16.335-6.595-33.411-23.926-32.931-24.592.681-34.921-31.109-14.626-45.014 14.303-9.799 14.303-30.906 0-40.705-20.295-13.904-9.966-45.694 14.626-45.014 17.331.48 29.737-16.596 23.926-32.931-8.247-23.178 18.796-42.825 38.291-27.82 13.739 10.575 33.813 4.052 38.713-12.579 6.952-23.599 40.378-23.599 47.33 0 4.899 16.631 24.973 23.153 38.713 12.579 19.495-15.005 46.537 4.642 38.291 27.82-5.812 16.335 6.595 33.411 23.926 32.931 24.592-.681 34.921 31.109 14.626 45.014-14.303 9.799-14.303 30.907 0 40.705z" fill="#b3f2d7"/></g><g><path d="m196.002 256c0-60.249 33.835-112.588 83.535-139.075-7.203-23.208-40.288-23.088-47.201.38-4.9 16.631-24.974 23.153-38.713 12.578-19.495-15.005-46.537 4.642-38.291 27.82 5.812 16.334-6.595 33.411-23.926 32.931-24.592-.68-34.921 31.109-14.626 45.014 14.303 9.799 14.303 30.906 0 40.705-20.295 13.904-9.966 45.694 14.626 45.014 17.331-.48 29.737 16.596 23.926 32.931-8.247 23.178 18.796 42.825 38.291 27.82 13.739-10.575 33.813-4.052 38.713 12.578 6.914 23.468 39.998 23.588 47.201.38-49.701-26.488-83.535-78.827-83.535-139.076z" fill="#95e8c8"/></g><g><circle cx="427.111" cy="75.139" fill="#b3f2d7" r="50"/></g><g><path d="m427.111 75.139c0-18.504 10.059-34.648 25-43.294-7.356-4.257-15.89-6.706-25-6.706-27.614 0-50 22.386-50 50s22.386 50 50 50c9.11 0 17.644-2.449 25-6.706-14.941-8.646-25-24.79-25-43.294z" fill="#95e8c8"/></g><g><circle cx="117.092" cy="454.5" fill="#b3f2d7" r="50"/></g><g><path d="m117.092 454.5c0-18.504 10.059-34.648 25-43.294-7.356-4.257-15.89-6.706-25-6.706-27.614 0-50 22.386-50 50s22.386 50 50 50c9.11 0 17.644-2.449 25-6.706-14.941-8.646-25-24.79-25-43.294z" fill="#95e8c8"/></g><g><circle cx="57.5" cy="121.147" fill="#b3f2d7" r="50"/></g><g><path d="m57.5 121.147c0-18.504 10.059-34.648 25-43.294-7.356-4.257-15.89-6.706-25-6.706-27.614 0-50 22.386-50 50s22.386 50 50 50c9.11 0 17.644-2.449 25-6.706-14.941-8.646-25-24.79-25-43.294z" fill="#95e8c8"/></g><g><circle cx="147.092" cy="37.5" fill="#b3f2d7" r="30"/></g><g><path d="m147.092 37.5c0-11.102 6.036-20.789 15-25.977-4.414-2.554-9.534-4.023-15-4.023-16.569 0-30 13.431-30 30s13.431 30 30 30c5.466 0 10.586-1.469 15-4.023-8.965-5.188-15-14.875-15-25.977z" fill="#95e8c8"/></g><g><circle cx="474.5" cy="256" fill="#b3f2d7" r="30"/></g><g><circle cx="292.464" cy="324.426" fill="#95e8c8" r="20"/></g><g><circle cx="299.536" cy="191.147" fill="#95e8c8" r="20"/></g><g><circle cx="226.081" cy="173.277" fill="#95e8c8" r="15"/></g><g><path d="m474.5 256c0-11.102 6.036-20.789 15-25.977-4.414-2.554-9.534-4.023-15-4.023-16.569 0-30 13.431-30 30s13.431 30 30 30c5.466 0 10.586-1.469 15-4.023-8.964-5.188-15-14.875-15-25.977z" fill="#95e8c8"/></g><g><circle cx="415.124" cy="436.361" fill="#b3f2d7" r="40"/></g><g><path d="m415.124 436.361c0-14.803 8.047-27.718 20-34.635-5.885-3.406-12.712-5.365-20-5.365-22.091 0-40 17.909-40 40 0 22.092 17.909 40 40 40 7.288 0 14.115-1.959 20-5.365-11.953-6.917-20-19.832-20-34.635z" fill="#95e8c8"/></g><g><path d="m186.052 262.967c0 4.143 3.357 7.5 7.5 7.5s7.5-3.357 7.5-7.5v-8.839l2.381.638c.65.175 1.304.258 1.946.258 3.312 0 6.342-2.21 7.239-5.561 1.072-4.001-1.302-8.114-5.303-9.186l-24.065-6.448c-4.002-1.075-8.114 1.302-9.186 5.303s1.302 8.114 5.303 9.186l7.079 1.897c-.252.75-.394 1.551-.394 2.386z"/><path d="m256 278.427c8.479 0 16.54-3.671 22.118-10.073 2.722-3.122 2.396-7.86-.728-10.581s-7.86-2.396-10.581.728c-2.729 3.131-6.669 4.927-10.81 4.927s-8.081-1.796-10.81-4.927c-2.721-3.124-7.459-3.448-10.581-.728-3.123 2.721-3.449 7.459-.728 10.581 5.58 6.402 13.641 10.073 22.12 10.073z"/><path d="m337.936 239.132c-1.071-4.001-5.184-6.378-9.186-5.303l-24.065 6.448c-4.001 1.071-6.375 5.185-5.303 9.186.897 3.351 3.928 5.561 7.239 5.561.643 0 1.296-.083 1.946-.258l2.381-.638v8.839c0 4.143 3.357 7.5 7.5 7.5s7.5-3.357 7.5-7.5v-10.366c0-.835-.142-1.636-.394-2.386l7.079-1.897c4.001-1.072 6.375-5.185 5.303-9.186z"/><path d="m380.388 328.863c14.587.403 26.968-8.316 31.485-22.217 4.517-13.9-.355-28.221-12.414-36.481-4.745-3.251-7.466-8.413-7.466-14.165s2.721-10.914 7.467-14.165c12.058-8.261 16.93-22.581 12.413-36.481s-16.89-22.644-31.485-22.217c-5.763.156-10.986-2.419-14.367-7.071-3.38-4.653-4.213-10.43-2.285-15.849 4.898-13.771.424-28.22-11.4-36.811-11.826-8.589-26.95-8.382-38.531.533-4.559 3.508-10.308 4.503-15.779 2.724-5.471-1.777-9.54-5.961-11.165-11.478-4.131-14.021-16.243-23.08-30.859-23.08s-26.729 9.06-30.859 23.08c-1.625 5.517-5.694 9.7-11.165 11.478-5.467 1.777-11.221.784-15.779-2.724-11.582-8.915-26.706-9.122-38.531-.533-11.824 8.591-16.299 23.04-11.4 36.811 1.928 5.419 1.095 11.195-2.285 15.849s-8.583 7.23-14.367 7.071c-14.61-.395-26.969 8.316-31.485 22.217s.355 28.221 12.413 36.481c3.416 2.341 8.086 1.47 10.427-1.948 2.341-3.417 1.469-8.085-1.948-10.427-7.812-5.352-8.544-13.566-6.626-19.472 1.92-5.904 7.383-12.092 16.806-11.857 10.597.31 20.676-4.66 26.916-13.249 6.241-8.59 7.842-19.689 4.283-29.692-3.174-8.921 1.062-15.999 6.085-19.647 5.021-3.648 13.061-5.491 20.565.284 8.413 6.477 19.465 8.383 29.563 5.103s17.918-11.32 20.918-21.505c2.676-9.082 10.263-12.318 16.471-12.318s13.795 3.236 16.471 12.318c3 10.185 10.82 18.225 20.918 21.505 10.1 3.28 21.15 1.374 29.563-5.103 7.503-5.774 15.544-3.934 20.565-.284 5.022 3.648 9.259 10.727 6.085 19.647-3.559 10.003-1.958 21.103 4.283 29.692 6.24 8.59 16.295 13.583 26.916 13.249 9.493-.244 14.888 5.953 16.806 11.857 1.918 5.905 1.186 14.12-6.625 19.472-8.76 6.001-13.989 15.922-13.989 26.54s5.229 20.539 13.988 26.54c7.812 5.352 8.544 13.566 6.626 19.472-1.919 5.904-7.35 12.12-16.806 11.857-10.616-.312-20.676 4.66-26.916 13.249-6.241 8.59-7.842 19.689-4.283 29.692 3.174 8.921-1.062 15.999-6.085 19.647-5.021 3.648-13.061 5.49-20.565-.284-8.413-6.478-19.467-8.385-29.563-5.103-10.098 3.28-17.918 11.32-20.918 21.505-2.676 9.082-10.263 12.318-16.471 12.318s-13.795-3.236-16.471-12.318c-3-10.185-10.82-18.225-20.918-21.505-10.102-3.282-21.15-1.375-29.563 5.103-7.503 5.773-15.544 3.934-20.565.284-5.022-3.648-9.259-10.727-6.085-19.647 3.559-10.003 1.958-21.103-4.283-29.692-6.24-8.59-16.275-13.56-26.916-13.249-9.473.229-14.887-5.953-16.806-11.857-1.918-5.905-1.186-14.12 6.626-19.472 3.417-2.342 4.289-7.01 1.948-10.427-2.34-3.416-7.008-4.289-10.427-1.948-12.058 8.261-16.93 22.581-12.413 36.481s16.879 22.592 31.485 22.217c5.769-.16 10.986 2.419 14.367 7.071 3.38 4.653 4.213 10.43 2.285 15.849-4.898 13.771-.424 28.22 11.4 36.811 11.827 8.591 26.95 8.382 38.531-.533 4.56-3.507 10.31-4.501 15.779-2.724 5.471 1.777 9.54 5.961 11.165 11.478 4.131 14.021 16.243 23.08 30.859 23.08s26.729-9.06 30.859-23.08c1.625-5.517 5.694-9.7 11.165-11.478 5.468-1.777 11.221-.784 15.779 2.724 11.583 8.915 26.707 9.124 38.531.533s16.299-23.04 11.4-36.811c-1.928-5.419-1.095-11.195 2.285-15.849 3.38-4.652 8.596-7.239 14.367-7.071z"/><path d="m386.431 105.167c3.659-1.941 5.051-6.481 3.109-10.141-3.225-6.076-4.929-12.953-4.929-19.887 0-23.435 19.065-42.5 42.5-42.5s42.5 19.065 42.5 42.5-19.065 42.5-42.5 42.5c-6.939 0-13.552-1.617-19.653-4.806-3.67-1.915-8.201-.497-10.121 3.174-1.918 3.671-.497 8.202 3.174 10.121 8.151 4.259 17.35 6.511 26.601 6.511 31.706 0 57.5-25.794 57.5-57.5s-25.794-57.5-57.5-57.5-57.5 25.794-57.5 57.5c0 9.376 2.31 18.684 6.679 26.918 1.939 3.658 6.48 5.053 10.14 3.11z"/><path d="m117.092 397c-31.706 0-57.5 25.794-57.5 57.5s25.794 57.5 57.5 57.5 57.5-25.794 57.5-57.5-25.794-57.5-57.5-57.5zm0 100c-23.435 0-42.5-19.065-42.5-42.5s19.065-42.5 42.5-42.5 42.5 19.065 42.5 42.5-19.066 42.5-42.5 42.5z"/><path d="m115 121.147c0-31.706-25.794-57.5-57.5-57.5s-57.5 25.794-57.5 57.5 25.794 57.5 57.5 57.5 57.5-25.793 57.5-57.5zm-57.5 42.5c-23.435 0-42.5-19.065-42.5-42.5s19.065-42.5 42.5-42.5 42.5 19.065 42.5 42.5-19.065 42.5-42.5 42.5z"/><path d="m147.092 75c20.678 0 37.5-16.822 37.5-37.5s-16.822-37.5-37.5-37.5-37.5 16.822-37.5 37.5 16.822 37.5 37.5 37.5zm0-60c12.406 0 22.5 10.094 22.5 22.5s-10.094 22.5-22.5 22.5-22.5-10.094-22.5-22.5 10.094-22.5 22.5-22.5z"/><path d="m474.5 218.5c-20.678 0-37.5 16.822-37.5 37.5s16.822 37.5 37.5 37.5 37.5-16.822 37.5-37.5-16.822-37.5-37.5-37.5zm0 60c-12.406 0-22.5-10.094-22.5-22.5s10.094-22.5 22.5-22.5 22.5 10.094 22.5 22.5-10.094 22.5-22.5 22.5z"/><path d="m415.124 388.86c-26.191 0-47.5 21.309-47.5 47.5s21.309 47.5 47.5 47.5 47.5-21.309 47.5-47.5-21.309-47.5-47.5-47.5zm0 80c-17.921 0-32.5-14.579-32.5-32.5s14.579-32.5 32.5-32.5 32.5 14.579 32.5 32.5-14.579 32.5-32.5 32.5z"/></g></g></svg>